<svg width="49" height="13" viewBox="0 0 49 13" fill="none" xmlns="http://www.w3.org/2000/svg">
<path d="M11.1094 12H7.0625L2.89062 3.95312H2.82031C2.91927 5.1875 2.96875 6.15365 2.96875 6.85156V12H0.234375V0.578125H4.26562L8.42188 8.51562H8.46875C8.39583 7.32292 8.35938 6.39844 8.35938 5.74219V0.578125H11.1094V12ZM18.4922 12.1562C16.7682 12.1562 15.4453 11.6562 14.5234 10.6562C13.6068 9.65104 13.1484 8.20573 13.1484 6.32031C13.1484 6.28385 13.1484 6.2474 13.1484 6.21094C13.1484 4.48177 13.6432 3.08333 14.6328 2.01562C15.6276 0.947917 16.9479 0.414062 18.5938 0.414062C18.625 0.414062 18.6562 0.414062 18.6875 0.414062C19.9271 0.414062 21.1068 0.682292 22.2266 1.21875L21.2812 3.64844C20.7969 3.41927 20.349 3.24479 19.9375 3.125C19.5312 3.00521 19.1042 2.94531 18.6562 2.94531C17.9271 2.94531 17.3542 3.2474 16.9375 3.85156C16.526 4.45052 16.3203 5.27865 16.3203 6.33594C16.3203 8.53385 17.1562 9.63281 18.8281 9.63281C19.6042 9.63281 20.5703 9.39323 21.7266 8.91406V11.5234C20.7734 11.9453 19.6953 12.1562 18.4922 12.1562ZM28.1094 2.99219C29.2448 2.99219 30.1224 3.27604 30.7422 3.84375C31.3672 4.41146 31.6797 5.19531 31.6797 6.19531V12H29.5625L28.9766 10.8281H28.9141C28.4922 11.3438 28.0703 11.6953 27.6484 11.8828C27.2266 12.0651 26.6771 12.1562 26 12.1562C25.1667 12.1562 24.5104 11.9062 24.0312 11.4062C23.5521 10.901 23.3125 10.1927 23.3125 9.28125C23.3125 8.36458 23.6328 7.67188 24.2734 7.20312C24.9193 6.73438 25.8776 6.47135 27.1484 6.41406L28.625 6.36719V6.24219C28.625 5.51302 28.2656 5.14844 27.5469 5.14844C26.901 5.14844 26.0807 5.36719 25.0859 5.80469L24.2031 3.78906C25.2344 3.25781 26.5365 2.99219 28.1094 2.99219ZM26.4297 9.1875C26.4297 9.72917 26.7188 10 27.2969 10C27.6719 10 27.9896 9.88281 28.25 9.64844C28.5104 9.41406 28.6406 9.10938 28.6406 8.73438V8.04688L27.9375 8.07812C26.9323 8.11458 26.4297 8.48438 26.4297 9.1875ZM39.1016 2.99219C39.3464 2.99219 39.599 3.01302 39.8594 3.05469L40.0312 3.08594L39.7578 5.96875C39.5078 5.90625 39.1615 5.875 38.7188 5.875C38.0625 5.875 37.5807 6.02344 37.2734 6.32031C36.9661 6.61719 36.8125 7.0599 36.8125 7.64844V12H33.7578V3.14844H36.0312L36.5078 4.5625H36.6562C36.9115 4.09375 37.2682 3.71615 37.7266 3.42969C38.1849 3.13802 38.6432 2.99219 39.1016 2.99219ZM44.2344 9.9375C44.8958 9.9375 45.2266 9.78646 45.2266 9.48438C45.2266 9.32812 45.1328 9.1901 44.9453 9.07031C44.7578 8.9401 44.2214 8.70052 43.3359 8.35156C42.5182 8.01302 41.9479 7.63281 41.625 7.21094C41.3073 6.78385 41.1484 6.2474 41.1484 5.60156C41.1484 4.78385 41.4635 4.14583 42.0938 3.6875C42.7292 3.22396 43.599 2.99219 44.7031 2.99219C45.8073 2.99219 46.9193 3.24219 48.0391 3.74219L47.2109 5.71094C46.7891 5.52344 46.3568 5.36719 45.9141 5.24219C45.4766 5.11719 45.1094 5.05469 44.8125 5.05469C44.3125 5.05469 44.0625 5.17708 44.0625 5.42188C44.0625 5.57292 44.1484 5.70312 44.3203 5.8125C44.5286 5.92708 45.0339 6.14323 45.8359 6.46094C46.4557 6.71615 46.9167 6.96615 47.2188 7.21094C47.8125 7.6901 48.1094 8.39062 48.1094 9.3125C48.1094 10.2344 47.7865 10.9401 47.1406 11.4297C46.5 11.9141 45.5729 12.1562 44.3594 12.1562C43.7188 12.1562 43.151 12.1198 42.6562 12.0469C42.1615 11.974 41.6641 11.8464 41.1641 11.6641V9.21875C41.6432 9.43229 42.1667 9.60677 42.7344 9.74219C43.3073 9.8724 43.8073 9.9375 44.2344 9.9375Z" fill="url(#paint0_linear_5_3)"/>
<defs>
<linearGradient id="paint0_linear_5_3" x1="-18" y1="-12.5" x2="90.3117" y2="-5.43382" gradientUnits="userSpaceOnUse">
<stop stop-color="white"/>
<stop offset="0.603145" stop-color="#BCBAFF"/>
<stop offset="1"/>
</linearGradient>
</defs>
</svg>
