<svg width="51" height="13" viewBox="0 0 51 13" fill="none" xmlns="http://www.w3.org/2000/svg">
<path d="M11.375 11.1328C11.375 11.2786 11.3464 11.4141 11.2891 11.5391C11.237 11.6641 11.1641 11.7734 11.0703 11.8672C10.9818 11.9557 10.875 12.026 10.75 12.0781C10.625 12.1302 10.4922 12.1562 10.3516 12.1562C10.2266 12.1562 10.099 12.1328 9.96875 12.0859C9.84375 12.0391 9.73177 11.9635 9.63281 11.8594L2.21094 4.10938V12H0.179688V1.66406C0.179688 1.45573 0.236979 1.26823 0.351562 1.10156C0.471354 0.929688 0.622396 0.802083 0.804688 0.71875C0.997396 0.640625 1.19531 0.622396 1.39844 0.664062C1.60156 0.700521 1.77604 0.794271 1.92188 0.945312L9.34375 8.6875V0.796875H11.375V11.1328ZM21.6328 12H16.125C15.8438 12 15.5365 11.9505 15.2031 11.8516C14.8698 11.7526 14.5599 11.5911 14.2734 11.3672C13.9922 11.138 13.7552 10.8438 13.5625 10.4844C13.375 10.1198 13.2812 9.67448 13.2812 9.14844V6.39844C13.2812 6.20573 13.3021 6.0026 13.3438 5.78906C13.3906 5.57552 13.4609 5.36458 13.5547 5.15625C13.6484 4.94271 13.7682 4.73958 13.9141 4.54688C14.0651 4.35417 14.2448 4.1849 14.4531 4.03906C14.6667 3.89323 14.9115 3.77604 15.1875 3.6875C15.4635 3.59896 15.776 3.55469 16.125 3.55469H21.6328V5.58594H16.125C15.8594 5.58594 15.6562 5.65365 15.5156 5.78906C15.3802 5.92448 15.3125 6.13281 15.3125 6.41406V9.14844C15.3125 9.41406 15.3828 9.61719 15.5234 9.75781C15.6641 9.89844 15.8698 9.96875 16.1406 9.96875H21.6328V12ZM31.9688 9.20312C31.9688 9.48438 31.9193 9.78906 31.8203 10.1172C31.7214 10.4401 31.5599 10.7422 31.3359 11.0234C31.1172 11.2995 30.8281 11.5312 30.4688 11.7188C30.1146 11.9062 29.6823 12 29.1719 12H25.5078C25.2266 12 24.9219 11.9505 24.5938 11.8516C24.2708 11.7526 23.9688 11.5938 23.6875 11.375C23.4115 11.151 23.1797 10.862 22.9922 10.5078C22.8047 10.1484 22.7109 9.71354 22.7109 9.20312C22.7109 8.92188 22.7604 8.61719 22.8594 8.28906C22.9583 7.96094 23.1172 7.65885 23.3359 7.38281C23.5599 7.10156 23.849 6.86719 24.2031 6.67969C24.5625 6.49219 24.9974 6.39844 25.5078 6.39844H29.1719V8.33594H25.5078C25.2318 8.33594 25.0182 8.42188 24.8672 8.59375C24.7161 8.76042 24.6406 8.96875 24.6406 9.21875C24.6406 9.48438 24.7266 9.69271 24.8984 9.84375C25.0755 9.98958 25.2839 10.0625 25.5234 10.0625H29.1719C29.4479 10.0625 29.6615 9.97917 29.8125 9.8125C29.9635 9.64583 30.0391 9.4375 30.0391 9.1875V6.35156C30.0391 6.08594 29.9557 5.875 29.7891 5.71875C29.6276 5.5625 29.4219 5.48438 29.1719 5.48438H24.7109V3.55469H29.1719C29.4531 3.55469 29.7552 3.60417 30.0781 3.70312C30.4062 3.80208 30.7083 3.96354 30.9844 4.1875C31.2656 4.40625 31.5 4.69531 31.6875 5.05469C31.875 5.40885 31.9688 5.84115 31.9688 6.35156V9.20312ZM41.0938 5.58594H36.5234C36.2474 5.58594 36.0391 5.65625 35.8984 5.79688C35.7578 5.93229 35.6875 6.13281 35.6875 6.39844V12H33.6562V6.39844C33.6562 6.04948 33.7005 5.73698 33.7891 5.46094C33.8776 5.1849 33.9948 4.94271 34.1406 4.73438C34.2917 4.52083 34.4635 4.34115 34.6562 4.19531C34.849 4.04427 35.0495 3.92188 35.2578 3.82812C35.4714 3.73438 35.6849 3.66667 35.8984 3.625C36.1172 3.57812 36.3203 3.55469 36.5078 3.55469H41.0938V5.58594ZM50.6016 9.14844C50.6016 9.4974 50.5573 9.8125 50.4688 10.0938C50.3802 10.3698 50.263 10.6146 50.1172 10.8281C49.9714 11.0365 49.8021 11.2161 49.6094 11.3672C49.4167 11.513 49.2135 11.6328 49 11.7266C48.7917 11.8203 48.5781 11.8906 48.3594 11.9375C48.1458 11.9792 47.9427 12 47.75 12H42.25V9.96875H47.7344C48.0104 9.96875 48.2188 9.89844 48.3594 9.75781C48.5 9.61719 48.5703 9.41406 48.5703 9.14844C48.5443 8.60677 48.2708 8.33594 47.75 8.33594H44.6016C44.1536 8.33594 43.7734 8.25781 43.4609 8.10156C43.1484 7.94531 42.8932 7.75 42.6953 7.51562C42.5026 7.28125 42.362 7.02865 42.2734 6.75781C42.1901 6.48698 42.1484 6.23438 42.1484 6C42.1484 5.54688 42.2292 5.16667 42.3906 4.85938C42.5521 4.54688 42.7552 4.29427 43 4.10156C43.2448 3.90885 43.5104 3.77083 43.7969 3.6875C44.0833 3.59896 44.3516 3.55469 44.6016 3.55469H49.5938V5.58594H44.6172C44.513 5.58594 44.4297 5.59896 44.3672 5.625C44.3099 5.64583 44.2656 5.67708 44.2344 5.71875C44.2083 5.75521 44.1927 5.79688 44.1875 5.84375C44.1823 5.88542 44.1797 5.92708 44.1797 5.96875C44.1849 6.05208 44.2005 6.11719 44.2266 6.16406C44.2526 6.21094 44.2839 6.24479 44.3203 6.26562C44.362 6.28646 44.4062 6.29948 44.4531 6.30469C44.5052 6.30469 44.5547 6.30469 44.6016 6.30469H47.75C48.2708 6.30469 48.7135 6.39844 49.0781 6.58594C49.4427 6.77344 49.737 7.01042 49.9609 7.29688C50.1849 7.57812 50.3464 7.88542 50.4453 8.21875C50.5495 8.55208 50.6016 8.86198 50.6016 9.14844Z" fill="url(#paint0_linear_1_3)"/>
<defs>
<linearGradient id="paint0_linear_1_3" x1="-1" y1="-17.3333" x2="57.4899" y2="5.02217" gradientUnits="userSpaceOnUse">
<stop stop-color="#0A092A"/>
<stop offset="0.932672" stop-color="#0E0C74"/>
<stop offset="1" stop-opacity="0"/>
</linearGradient>
</defs>
</svg>
